<?xml version="1.0" standalone="no"?><!-- Generator: Gravit.io --><svg xmlns="http://www.w3.org/2000/svg" xmlns:xlink="http://www.w3.org/1999/xlink" style="isolation:isolate" viewBox="0 0 560 315" width="560" height="315"><g id="null"><g id="react"><path d=" M 112.162 156.957 C 112.162 182.308 136.916 205.973 175.942 219.313 C 168.149 258.546 174.546 290.169 195.911 302.49 C 217.872 315.156 250.588 306.389 281.641 279.243 C 311.911 305.292 342.502 315.543 363.849 303.187 C 385.789 290.485 392.461 256.719 384.453 216.26 C 425.101 202.821 447.838 182.642 447.838 156.957 C 447.838 132.195 423.039 110.773 384.538 97.519 C 393.16 55.389 385.855 24.534 363.605 11.703 C 342.154 -0.667 311.206 10.115 280.492 36.845 C 248.538 8.474 217.897 -0.188 195.67 12.678 C 174.239 25.084 168.124 57.282 175.942 97.241 C 138.233 110.388 112.162 132.295 112.162 156.957 Z " fill="rgb(255,255,255)"/><path d=" M 376.385 110.681 C 373.212 109.592 370.012 108.584 366.788 107.657 C 367.323 105.484 367.817 103.302 368.271 101.112 C 375.535 65.849 370.786 37.441 354.566 28.089 C 339.015 19.121 313.581 28.472 287.894 50.825 C 285.362 53.033 282.887 55.304 280.471 57.637 C 278.853 56.086 277.206 54.565 275.531 53.075 C 248.611 29.171 221.626 19.1 205.424 28.479 C 189.887 37.473 185.285 64.18 191.825 97.598 C 192.476 100.908 193.211 104.2 194.029 107.472 C 190.21 108.557 186.523 109.712 182.995 110.942 C 151.434 121.945 131.277 139.191 131.277 157.079 C 131.277 175.555 152.914 194.086 185.789 205.321 C 188.455 206.228 191.143 207.068 193.85 207.841 C 192.971 211.367 192.19 214.916 191.509 218.484 C 185.274 251.322 190.143 277.396 205.639 286.335 C 221.643 295.564 248.505 286.078 274.662 263.214 C 276.729 261.406 278.805 259.489 280.883 257.48 C 283.5 260.005 286.187 262.457 288.941 264.832 C 314.277 286.634 339.3 295.438 354.782 286.476 C 370.772 277.22 375.968 249.209 369.221 215.129 C 368.706 212.526 368.106 209.868 367.433 207.161 C 369.32 206.604 371.171 206.029 372.977 205.43 C 407.153 194.107 429.388 175.801 429.388 157.079 C 429.388 139.127 408.582 121.764 376.385 110.681 L 376.385 110.681 Z " fill="rgb(0,116,154)"/><path d=" M 368.972 193.342 C 367.342 193.882 365.669 194.403 363.965 194.908 C 360.191 182.964 355.099 170.263 348.869 157.142 C 354.815 144.332 359.71 131.794 363.378 119.927 C 366.427 120.811 369.387 121.741 372.24 122.724 C 399.827 132.219 416.653 146.26 416.653 157.079 C 416.653 168.603 398.48 183.564 368.973 193.342 L 368.972 193.342 Z  M 356.728 217.603 C 359.711 232.672 360.137 246.297 358.161 256.948 C 356.385 266.518 352.815 272.899 348.401 275.454 C 339.006 280.893 318.914 273.824 297.248 255.179 C 294.763 253.042 292.261 250.759 289.751 248.345 C 298.151 239.157 306.546 228.476 314.739 216.615 C 329.152 215.336 342.767 213.245 355.115 210.392 C 355.722 212.846 356.262 215.251 356.728 217.603 L 356.728 217.603 Z  M 232.909 274.515 C 223.731 277.757 216.42 277.849 212.002 275.301 C 202.598 269.879 198.69 248.941 204.021 220.859 C 204.655 217.54 205.381 214.24 206.198 210.962 C 218.408 213.662 231.925 215.606 246.372 216.777 C 254.619 228.383 263.256 239.051 271.961 248.394 C 270.111 250.183 268.217 251.927 266.282 253.623 C 254.715 263.735 243.125 270.907 232.911 274.515 L 232.909 274.515 Z  M 189.908 193.271 C 175.372 188.302 163.367 181.845 155.139 174.8 C 147.745 168.467 144.012 162.181 144.012 157.079 C 144.012 146.225 160.196 132.378 187.188 122.968 C 190.576 121.792 193.997 120.715 197.448 119.739 C 201.179 131.873 206.073 144.56 211.978 157.389 C 205.996 170.409 201.033 183.298 197.268 195.574 C 194.796 194.867 192.342 194.099 189.908 193.271 L 189.908 193.271 Z  M 204.323 95.152 C 198.72 66.519 202.441 44.92 211.804 39.5 C 221.778 33.727 243.831 41.96 267.075 62.598 C 268.56 63.917 270.052 65.298 271.547 66.727 C 262.887 76.027 254.329 86.615 246.153 98.154 C 232.132 99.453 218.711 101.54 206.372 104.336 C 205.612 101.292 204.929 98.229 204.323 95.151 L 204.323 95.152 Z  M 332.914 126.905 C 330 121.871 326.978 116.9 323.849 111.996 C 333.362 113.197 342.474 114.793 351.031 116.747 C 348.463 124.981 345.261 133.591 341.49 142.417 C 338.735 137.19 335.876 132.018 332.914 126.905 L 332.914 126.905 Z  M 280.475 75.828 C 286.349 82.191 292.231 89.297 298.018 97.006 C 286.28 96.451 274.522 96.449 262.784 96.998 C 268.576 89.36 274.509 82.265 280.475 75.828 Z  M 227.699 126.992 C 224.775 132.064 221.969 137.204 219.285 142.408 C 215.576 133.612 212.403 124.964 209.812 116.612 C 218.317 114.709 227.388 113.153 236.838 111.972 C 233.675 116.907 230.628 121.914 227.699 126.992 L 227.699 126.992 Z  M 237.11 203.094 C 227.347 202.005 218.139 200.528 209.636 198.677 C 212.268 190.178 215.511 181.344 219.299 172.359 C 221.995 177.567 224.813 182.71 227.751 187.785 C 230.748 192.962 233.869 198.066 237.11 203.094 L 237.11 203.094 Z  M 280.827 239.229 C 274.791 232.716 268.771 225.512 262.891 217.764 C 268.598 217.988 274.418 218.102 280.332 218.102 C 286.409 218.102 292.416 217.966 298.328 217.702 C 292.523 225.592 286.661 232.806 280.827 239.229 Z  M 341.611 171.902 C 345.596 180.984 348.955 189.771 351.622 198.126 C 342.978 200.098 333.647 201.687 323.814 202.866 C 326.965 197.871 330.016 192.813 332.966 187.697 C 335.964 182.496 338.847 177.23 341.611 171.902 L 341.611 171.902 Z  M 321.934 181.335 C 317.418 189.179 312.648 196.875 307.632 204.41 C 298.787 205.042 289.647 205.368 280.332 205.368 C 271.056 205.368 262.032 205.079 253.342 204.515 C 248.196 196.998 243.336 189.289 238.772 181.405 C 234.23 173.562 229.988 165.55 226.054 157.385 C 229.978 149.218 234.208 141.201 238.734 133.352 L 238.734 133.355 C 243.259 125.504 248.081 117.828 253.189 110.343 C 262.054 109.673 271.145 109.322 280.334 109.322 C 289.564 109.322 298.666 109.675 307.529 110.351 C 312.585 117.824 317.376 125.474 321.893 133.285 C 326.435 141.116 330.721 149.094 334.744 157.204 C 330.762 165.397 326.49 173.446 321.935 181.335 L 321.934 181.335 Z  M 348.205 39.122 C 358.187 44.879 362.07 68.095 355.798 98.542 C 355.387 100.525 354.94 102.501 354.458 104.468 C 342.09 101.614 328.659 99.49 314.598 98.171 C 306.406 86.507 297.919 75.901 289.399 66.721 C 291.632 64.568 293.917 62.472 296.254 60.433 C 318.263 41.279 338.833 33.716 348.205 39.122 L 348.205 39.122 Z " fill="rgb(255,255,255)"/></g><g id="null"><path d=" M 256.421 157.499 C 256.421 166.832 261.845 174.897 269.71 178.72 L 258.463 147.904 C 257.114 150.923 256.419 154.193 256.421 157.499 L 256.421 157.499 Z  M 295.916 156.309 C 295.916 153.395 294.87 151.377 293.972 149.807 C 292.777 147.864 291.657 146.22 291.657 144.278 C 291.657 142.11 293.3 140.093 295.616 140.093 C 295.72 140.093 295.819 140.106 295.922 140.111 C 291.726 136.268 286.138 133.922 279.999 133.922 C 271.762 133.922 264.515 138.148 260.299 144.549 C 260.853 144.566 261.374 144.577 261.817 144.577 C 264.283 144.577 268.1 144.278 268.1 144.278 C 269.371 144.203 269.521 146.07 268.252 146.22 C 268.252 146.22 266.974 146.37 265.553 146.445 L 274.139 171.984 L 279.299 156.509 L 275.625 146.445 C 274.356 146.37 273.153 146.22 273.153 146.22 C 271.882 146.145 272.031 144.203 273.302 144.278 C 273.302 144.278 277.196 144.577 279.513 144.577 C 281.978 144.577 285.796 144.278 285.796 144.278 C 287.068 144.203 287.218 146.069 285.947 146.22 C 285.947 146.22 284.667 146.37 283.249 146.445 L 291.77 171.79 L 294.121 163.931 C 295.141 160.67 295.916 158.328 295.916 156.309 L 295.916 156.309 Z " fill="rgb(0,116,154)"/><path d=" M 280.413 159.562 L 273.339 180.117 C 275.502 180.755 277.745 181.079 279.999 181.078 C 282.745 181.078 285.378 180.603 287.829 179.742 C 287.763 179.639 287.707 179.53 287.661 179.417 L 280.413 159.562 Z  M 300.688 146.187 C 300.789 146.938 300.847 147.745 300.847 148.611 C 300.847 151.004 300.4 153.694 299.054 157.057 L 291.852 177.88 C 298.862 173.792 303.576 166.198 303.576 157.499 C 303.583 153.545 302.589 149.654 300.688 146.187 L 300.688 146.187 Z " fill="rgb(0,116,154)"/><path d=" M 279.999 130.015 C 264.845 130.015 252.514 142.344 252.514 157.499 C 252.514 172.656 264.844 184.985 279.999 184.985 C 295.154 184.985 307.486 172.656 307.486 157.499 C 307.485 142.344 295.154 130.015 279.999 130.015 Z  M 279.999 183.725 C 265.54 183.725 253.775 171.96 253.775 157.499 C 253.775 143.04 265.539 131.276 279.999 131.276 C 294.459 131.276 306.223 143.04 306.223 157.499 C 306.223 171.96 294.458 183.725 279.999 183.725 Z " fill="rgb(0,116,154)"/></g></g></svg>